<svg width="20" height="20" viewBox="0 0 20 20" fill="none" xmlns="http://www.w3.org/2000/svg">
<g clip-path="url(#clip0)">
<path d="M17.071 2.929C15.182 1.04 12.671 0 10 0C6.906 0 4.025 1.425 2.147 3.807V2.5C2.147 2.224 1.923 2 1.647 2C1.371 2 1.147 2.224 1.147 2.5V5.472C1.147 5.701 1.302 5.9 1.524 5.957C1.621 5.982 1.719 5.976 1.808 5.946L4.661 4.974C4.922 4.885 5.062 4.601 4.973 4.34C4.884 4.079 4.6 3.939 4.339 4.028L2.849 4.536C4.537 2.328 7.169 1.002 10.001 1.002C14.964 1.002 19.001 5.039 19.001 10.002C19.001 14.965 14.964 19.002 10.001 19.002C6.685 19.002 3.647 17.187 2.073 14.265C1.942 14.022 1.639 13.931 1.396 14.062C1.153 14.193 1.062 14.496 1.193 14.739C2.942 17.985 6.318 20.002 10.002 20.002C12.673 20.002 15.184 18.962 17.073 17.073C18.962 15.184 20.002 12.673 20.002 10.002C20.002 7.331 18.962 4.82 17.073 2.931L17.071 2.929Z" fill="white"/>
<path d="M10 10.5002C9.916 10.5002 9.833 10.4792 9.757 10.4372L5.257 7.93724C5.016 7.80324 4.929 7.49924 5.063 7.25724C5.197 7.01524 5.501 6.92924 5.743 7.06324L9.983 9.41824L15.232 6.07824C15.465 5.93024 15.774 5.99824 15.922 6.23124C16.07 6.46424 16.002 6.77324 15.769 6.92124L10.269 10.4212C10.187 10.4732 10.094 10.4992 10.001 10.4992L10 10.5002Z" fill="white"/>
</g>
<defs>
<clipPath id="clip0">
<rect width="20" height="20" fill="white"/>
</clipPath>
</defs>
</svg>
