<svg width="20" height="20" viewBox="0 0 20 20" fill="none" xmlns="http://www.w3.org/2000/svg">
<g clip-path="url(#clip0)">
<path d="M16 20C14.229 20 12.345 19.498 10.4 18.508C8.607 17.595 6.836 16.288 5.278 14.728C3.72 13.168 2.415 11.395 1.503 9.601C0.515001 7.655 0.0130005 5.771 0.0130005 4C0.0130005 2.852 1.083 1.743 1.542 1.32C2.203 0.711 3.243 0 3.999 0C4.375 0 4.815 0.246 5.386 0.774C5.811 1.168 6.29 1.702 6.769 2.318C7.058 2.69 8.499 4.589 8.499 5.5C8.499 6.247 7.654 6.767 6.76 7.316C6.414 7.528 6.057 7.748 5.799 7.955C5.523 8.176 5.474 8.293 5.466 8.319C6.415 10.685 9.316 13.586 11.681 14.534C11.702 14.527 11.819 14.481 12.044 14.201C12.251 13.943 12.471 13.585 12.683 13.24C13.233 12.346 13.752 11.501 14.499 11.501C15.41 11.501 17.309 12.942 17.681 13.231C18.297 13.71 18.831 14.189 19.225 14.614C19.753 15.184 19.999 15.625 19.999 16.001C19.999 16.757 19.288 17.8 18.68 18.464C18.256 18.926 17.147 20.001 15.999 20.001L16 20ZM3.994 1C3.726 1.005 3.005 1.333 2.221 2.055C1.477 2.741 1.014 3.486 1.014 4C1.014 10.729 9.278 19 16 19C16.513 19 17.258 18.535 17.944 17.787C18.667 16.999 18.995 16.275 19 16.006C18.968 15.816 18.442 15.077 17.003 13.969C15.766 13.017 14.763 12.506 14.505 12.5C14.487 12.505 14.375 12.548 14.148 12.836C13.951 13.087 13.74 13.43 13.535 13.762C12.975 14.673 12.446 15.534 11.677 15.534C11.553 15.534 11.431 15.51 11.314 15.463C8.689 14.413 5.585 11.309 4.535 8.684C4.409 8.369 4.389 7.875 5.009 7.313C5.339 7.014 5.795 6.734 6.237 6.462C6.569 6.258 6.913 6.047 7.163 5.849C7.451 5.622 7.494 5.51 7.499 5.492C7.492 5.234 6.982 4.231 6.03 2.994C4.922 1.555 4.183 1.03 3.993 0.997L3.994 1Z" fill="white"/>
</g>
<defs>
<clipPath id="clip0">
<rect width="20" height="20" fill="white"/>
</clipPath>
</defs>
</svg>
