<svg width="24" height="16" viewBox="0 0 24 16" fill="none" xmlns="http://www.w3.org/2000/svg">
<path d="M21.875 0.5H1.875C0.84125 0.5 0 1.34125 0 2.375V13.625C0 14.6587 0.84125 15.5 1.875 15.5H21.875C22.9088 15.5 23.75 14.6587 23.75 13.625V2.375C23.75 1.34125 22.9088 0.5 21.875 0.5ZM21.875 1.75C21.9125 1.75 21.9475 1.75375 21.9837 1.76L12.5688 8.03625C12.2063 8.2775 11.545 8.2775 11.1825 8.03625L1.7675 1.76C1.8025 1.75375 1.83875 1.75 1.87625 1.75H21.8762H21.875ZM21.875 14.25H1.875C1.53 14.25 1.25 13.97 1.25 13.625V2.9175L10.4887 9.07625C10.8775 9.335 11.3763 9.465 11.875 9.465C12.3737 9.465 12.8725 9.335 13.2613 9.07625L22.5 2.9175V13.625C22.5 13.97 22.22 14.25 21.875 14.25Z" fill="white"/>
</svg>
