<svg width="196" height="67" viewBox="0 0 196 67" fill="none" xmlns="http://www.w3.org/2000/svg">
<rect x="34" y="33" width="14" height="34" fill="#AB07C6"/>
<path d="M48 13H68V33H48V13Z" fill="#DA8EE7"/>
<g filter="url(#filter0_d)">
<path d="M14 13H34V33H14V13Z" fill="#C23BD8"/>
</g>
<rect x="61" y="28" width="15" height="15" fill="#C468D3"/>
<rect x="51" y="41" width="15" height="10" fill="#7C2584"/>
<rect x="51" y="64" width="145" height="3" fill="#C468D3"/>
<path d="M86.114 27.382L86.204 28.552H86.33L86.582 27.274L87.914 22.36H89.102L90.344 27.238L90.668 28.57H90.758L90.866 27.346L92.198 18.4H93.53L91.586 31H90.092L88.634 25.888L88.454 24.664H88.4L88.202 25.906L86.744 31H85.232L83.27 18.4H84.692L86.114 27.382ZM103.315 29.866C103.099 30.058 102.841 30.238 102.541 30.406C102.253 30.574 101.935 30.718 101.587 30.838C101.239 30.958 100.873 31.048 100.489 31.108C100.117 31.18 99.739 31.216 99.355 31.216C98.635 31.216 97.999 31.108 97.447 30.892C96.895 30.664 96.433 30.346 96.061 29.938C95.689 29.518 95.407 29.02 95.215 28.444C95.023 27.868 94.927 27.22 94.927 26.5C94.927 25.744 95.029 25.072 95.233 24.484C95.449 23.896 95.755 23.404 96.151 23.008C96.547 22.612 97.027 22.312 97.591 22.108C98.155 21.892 98.785 21.784 99.481 21.784C99.985 21.784 100.483 21.85 100.975 21.982C101.467 22.114 101.899 22.366 102.271 22.738C102.655 23.098 102.949 23.602 103.153 24.25C103.357 24.886 103.429 25.714 103.369 26.734H96.403C96.403 27.814 96.691 28.624 97.267 29.164C97.855 29.692 98.635 29.956 99.607 29.956C99.931 29.956 100.249 29.92 100.561 29.848C100.885 29.764 101.191 29.668 101.479 29.56C101.767 29.452 102.019 29.332 102.235 29.2C102.463 29.068 102.637 28.948 102.757 28.84L103.315 29.866ZM99.517 22.972C99.121 22.972 98.743 23.014 98.383 23.098C98.035 23.182 97.723 23.326 97.447 23.53C97.183 23.722 96.961 23.98 96.781 24.304C96.613 24.616 96.505 25.006 96.457 25.474H102.055C101.995 24.682 101.737 24.07 101.281 23.638C100.837 23.194 100.249 22.972 99.517 22.972ZM104.622 18.4H107.502V23.026H107.592C107.904 22.63 108.306 22.324 108.798 22.108C109.29 21.892 109.824 21.784 110.4 21.784C113.04 21.784 114.36 23.308 114.36 26.356C114.36 27.904 113.934 29.092 113.082 29.92C112.23 30.736 111.018 31.144 109.446 31.144C108.702 31.144 108.03 31.072 107.43 30.928C106.83 30.784 106.392 30.616 106.116 30.424V19.606H104.622V18.4ZM110.22 22.99C109.5 22.99 108.918 23.194 108.474 23.602C108.03 24.01 107.706 24.586 107.502 25.33V29.47C107.778 29.614 108.108 29.728 108.492 29.812C108.876 29.896 109.278 29.938 109.698 29.938C110.178 29.938 110.61 29.872 110.994 29.74C111.39 29.596 111.726 29.38 112.002 29.092C112.278 28.792 112.488 28.414 112.632 27.958C112.788 27.502 112.866 26.962 112.866 26.338C112.866 25.882 112.818 25.45 112.722 25.042C112.626 24.634 112.47 24.28 112.254 23.98C112.05 23.668 111.78 23.428 111.444 23.26C111.108 23.08 110.7 22.99 110.22 22.99ZM84.44 38.4C84.896 38.34 85.37 38.304 85.862 38.292C86.366 38.268 86.792 38.256 87.14 38.256C88.232 38.256 89.144 38.412 89.876 38.724C90.62 39.036 91.214 39.474 91.658 40.038C92.114 40.59 92.438 41.256 92.63 42.036C92.834 42.816 92.936 43.674 92.936 44.61C92.936 45.462 92.846 46.284 92.666 47.076C92.486 47.856 92.174 48.552 91.73 49.164C91.286 49.764 90.686 50.25 89.93 50.622C89.186 50.982 88.25 51.162 87.122 51.162C86.966 51.162 86.762 51.156 86.51 51.144C86.258 51.144 86 51.132 85.736 51.108C85.472 51.096 85.22 51.084 84.98 51.072C84.74 51.06 84.56 51.042 84.44 51.018V38.4ZM87.212 39.588C87.044 39.588 86.828 39.594 86.564 39.606C86.312 39.618 86.102 39.642 85.934 39.678V49.758C85.994 49.77 86.078 49.782 86.186 49.794C86.306 49.794 86.426 49.8 86.546 49.812C86.666 49.812 86.78 49.818 86.888 49.83C87.008 49.83 87.104 49.83 87.176 49.83C88.052 49.83 88.76 49.686 89.3 49.398C89.852 49.11 90.278 48.726 90.578 48.246C90.878 47.754 91.082 47.196 91.19 46.572C91.298 45.936 91.352 45.282 91.352 44.61C91.352 44.022 91.304 43.434 91.208 42.846C91.112 42.246 90.914 41.706 90.614 41.226C90.326 40.746 89.906 40.356 89.354 40.056C88.814 39.744 88.1 39.588 87.212 39.588ZM103.315 49.866C103.099 50.058 102.841 50.238 102.541 50.406C102.253 50.574 101.935 50.718 101.587 50.838C101.239 50.958 100.873 51.048 100.489 51.108C100.117 51.18 99.739 51.216 99.355 51.216C98.635 51.216 97.999 51.108 97.447 50.892C96.895 50.664 96.433 50.346 96.061 49.938C95.689 49.518 95.407 49.02 95.215 48.444C95.023 47.868 94.927 47.22 94.927 46.5C94.927 45.744 95.029 45.072 95.233 44.484C95.449 43.896 95.755 43.404 96.151 43.008C96.547 42.612 97.027 42.312 97.591 42.108C98.155 41.892 98.785 41.784 99.481 41.784C99.985 41.784 100.483 41.85 100.975 41.982C101.467 42.114 101.899 42.366 102.271 42.738C102.655 43.098 102.949 43.602 103.153 44.25C103.357 44.886 103.429 45.714 103.369 46.734H96.403C96.403 47.814 96.691 48.624 97.267 49.164C97.855 49.692 98.635 49.956 99.607 49.956C99.931 49.956 100.249 49.92 100.561 49.848C100.885 49.764 101.191 49.668 101.479 49.56C101.767 49.452 102.019 49.332 102.235 49.2C102.463 49.068 102.637 48.948 102.757 48.84L103.315 49.866ZM99.517 42.972C99.121 42.972 98.743 43.014 98.383 43.098C98.035 43.182 97.723 43.326 97.447 43.53C97.183 43.722 96.961 43.98 96.781 44.304C96.613 44.616 96.505 45.006 96.457 45.474H102.055C101.995 44.682 101.737 44.07 101.281 43.638C100.837 43.194 100.249 42.972 99.517 42.972ZM110.022 49.254H110.22L113.046 42H114.612L110.814 51H109.23L105.36 42H107.016L110.022 49.254ZM124.901 49.866C124.685 50.058 124.427 50.238 124.127 50.406C123.839 50.574 123.521 50.718 123.173 50.838C122.825 50.958 122.459 51.048 122.075 51.108C121.703 51.18 121.325 51.216 120.941 51.216C120.221 51.216 119.585 51.108 119.033 50.892C118.481 50.664 118.019 50.346 117.647 49.938C117.275 49.518 116.993 49.02 116.801 48.444C116.609 47.868 116.513 47.22 116.513 46.5C116.513 45.744 116.615 45.072 116.819 44.484C117.035 43.896 117.341 43.404 117.737 43.008C118.133 42.612 118.613 42.312 119.177 42.108C119.741 41.892 120.371 41.784 121.067 41.784C121.571 41.784 122.069 41.85 122.561 41.982C123.053 42.114 123.485 42.366 123.857 42.738C124.241 43.098 124.535 43.602 124.739 44.25C124.943 44.886 125.015 45.714 124.955 46.734H117.989C117.989 47.814 118.277 48.624 118.853 49.164C119.441 49.692 120.221 49.956 121.193 49.956C121.517 49.956 121.835 49.92 122.147 49.848C122.471 49.764 122.777 49.668 123.065 49.56C123.353 49.452 123.605 49.332 123.821 49.2C124.049 49.068 124.223 48.948 124.343 48.84L124.901 49.866ZM121.103 42.972C120.707 42.972 120.329 43.014 119.969 43.098C119.621 43.182 119.309 43.326 119.033 43.53C118.769 43.722 118.547 43.98 118.367 44.304C118.199 44.616 118.091 45.006 118.043 45.474H123.641C123.581 44.682 123.323 44.07 122.867 43.638C122.423 43.194 121.835 42.972 121.103 42.972ZM127.432 38.4H130.42V47.976C130.42 48.708 130.54 49.224 130.78 49.524C131.032 49.824 131.398 49.974 131.878 49.974C132.214 49.974 132.556 49.908 132.904 49.776C133.252 49.644 133.57 49.458 133.858 49.218L134.506 50.172C134.314 50.34 134.104 50.49 133.876 50.622C133.648 50.754 133.414 50.868 133.174 50.964C132.934 51.048 132.694 51.114 132.454 51.162C132.214 51.21 131.992 51.234 131.788 51.234C131.344 51.234 130.948 51.174 130.6 51.054C130.252 50.946 129.958 50.766 129.718 50.514C129.49 50.262 129.316 49.932 129.196 49.524C129.076 49.104 129.016 48.588 129.016 47.976V39.606H127.432V38.4ZM137.991 46.5C137.991 45.048 138.369 43.902 139.125 43.062C139.881 42.21 140.961 41.784 142.365 41.784C143.121 41.784 143.769 41.91 144.309 42.162C144.861 42.402 145.317 42.732 145.677 43.152C146.037 43.572 146.301 44.07 146.469 44.646C146.649 45.222 146.739 45.84 146.739 46.5C146.739 47.22 146.643 47.874 146.451 48.462C146.259 49.038 145.977 49.53 145.605 49.938C145.233 50.346 144.771 50.664 144.219 50.892C143.679 51.108 143.061 51.216 142.365 51.216C141.621 51.216 140.973 51.096 140.421 50.856C139.869 50.604 139.413 50.268 139.053 49.848C138.693 49.428 138.423 48.93 138.243 48.354C138.075 47.778 137.991 47.16 137.991 46.5ZM139.485 46.5C139.485 46.92 139.533 47.34 139.629 47.76C139.737 48.18 139.905 48.558 140.133 48.894C140.361 49.23 140.655 49.5 141.015 49.704C141.387 49.908 141.837 50.01 142.365 50.01C143.325 50.01 144.045 49.716 144.525 49.128C145.017 48.528 145.263 47.652 145.263 46.5C145.263 46.068 145.209 45.648 145.101 45.24C145.005 44.82 144.837 44.442 144.597 44.106C144.369 43.77 144.069 43.5 143.697 43.296C143.337 43.092 142.893 42.99 142.365 42.99C141.405 42.99 140.685 43.284 140.205 43.872C139.725 44.46 139.485 45.336 139.485 46.5ZM149.486 45.15C149.486 45.042 149.48 44.904 149.468 44.736C149.468 44.556 149.462 44.376 149.45 44.196C149.438 44.004 149.42 43.818 149.396 43.638C149.384 43.458 149.366 43.302 149.342 43.17H148.136V42H150.53L150.71 43.26H150.8C151.124 42.84 151.532 42.492 152.024 42.216C152.528 41.928 153.14 41.784 153.86 41.784C155.144 41.784 156.11 42.138 156.758 42.846C157.406 43.554 157.73 44.712 157.73 46.32C157.73 47.076 157.616 47.76 157.388 48.372C157.172 48.972 156.86 49.482 156.452 49.902C156.044 50.322 155.552 50.646 154.976 50.874C154.4 51.102 153.764 51.216 153.068 51.216C152.816 51.216 152.588 51.204 152.384 51.18C152.192 51.168 152.012 51.144 151.844 51.108C151.688 51.084 151.532 51.048 151.376 51C151.22 50.952 151.052 50.892 150.872 50.82V54.6H149.486V45.15ZM153.626 43.098C153.266 43.098 152.924 43.164 152.6 43.296C152.288 43.428 152.006 43.602 151.754 43.818C151.514 44.034 151.316 44.274 151.16 44.538C151.004 44.802 150.908 45.066 150.872 45.33V49.434C151.136 49.614 151.43 49.758 151.754 49.866C152.09 49.962 152.528 50.01 153.068 50.01C154.028 50.01 154.796 49.698 155.372 49.074C155.948 48.438 156.236 47.514 156.236 46.302C156.236 45.282 156.032 44.496 155.624 43.944C155.228 43.38 154.562 43.098 153.626 43.098ZM168.073 49.866C167.857 50.058 167.599 50.238 167.299 50.406C167.011 50.574 166.693 50.718 166.345 50.838C165.997 50.958 165.631 51.048 165.247 51.108C164.875 51.18 164.497 51.216 164.113 51.216C163.393 51.216 162.757 51.108 162.205 50.892C161.653 50.664 161.191 50.346 160.819 49.938C160.447 49.518 160.165 49.02 159.973 48.444C159.781 47.868 159.685 47.22 159.685 46.5C159.685 45.744 159.787 45.072 159.991 44.484C160.207 43.896 160.513 43.404 160.909 43.008C161.305 42.612 161.785 42.312 162.349 42.108C162.913 41.892 163.543 41.784 164.239 41.784C164.743 41.784 165.241 41.85 165.733 41.982C166.225 42.114 166.657 42.366 167.029 42.738C167.413 43.098 167.707 43.602 167.911 44.25C168.115 44.886 168.187 45.714 168.127 46.734H161.161C161.161 47.814 161.449 48.624 162.025 49.164C162.613 49.692 163.393 49.956 164.365 49.956C164.689 49.956 165.007 49.92 165.319 49.848C165.643 49.764 165.949 49.668 166.237 49.56C166.525 49.452 166.777 49.332 166.993 49.2C167.221 49.068 167.395 48.948 167.515 48.84L168.073 49.866ZM164.275 42.972C163.879 42.972 163.501 43.014 163.141 43.098C162.793 43.182 162.481 43.326 162.205 43.53C161.941 43.722 161.719 43.98 161.539 44.304C161.371 44.616 161.263 45.006 161.215 45.474H166.813C166.753 44.682 166.495 44.07 166.039 43.638C165.595 43.194 165.007 42.972 164.275 42.972ZM170.532 51V49.794H172.962V43.206H170.532V42H173.898L174.186 43.17H174.276C174.684 42.798 175.14 42.48 175.644 42.216C176.148 41.952 176.748 41.82 177.444 41.82C177.852 41.82 178.176 41.898 178.416 42.054C178.668 42.21 178.86 42.438 178.992 42.738C179.136 43.038 179.232 43.404 179.28 43.836C179.328 44.256 179.352 44.736 179.352 45.276L178.092 45.294C178.092 44.526 178.014 43.962 177.858 43.602C177.714 43.242 177.444 43.062 177.048 43.062C176.676 43.062 176.34 43.116 176.04 43.224C175.74 43.332 175.476 43.464 175.248 43.62C175.032 43.776 174.846 43.932 174.69 44.088C174.534 44.244 174.42 44.376 174.348 44.484V49.794H177.804V51H170.532Z" fill="white"/>
<path d="M57.104 25.552C57.104 23.5467 54.7573 22.16 50.064 21.392C47.3333 20.9653 44.1973 20.752 40.656 20.752C37.1573 20.752 33.296 20.9653 29.072 21.392C18.576 22.4587 10.896 23.9947 6.032 26C2.14933 27.536 1.12533 29.2213 2.96 31.056C3.17333 31.2693 3.13067 31.376 2.832 31.376C2.53333 31.376 2.27733 31.2693 2.064 31.056C1.33867 30.3307 0.976 29.4987 0.976 28.56C0.976 27.5787 1.18933 26.6613 1.616 25.808C2 24.912 2.72533 23.9947 3.792 23.056C4.85867 22.1173 6.13867 21.3493 7.632 20.752C12.1973 18.96 17.5093 17.68 23.568 16.912C27.1093 16.4853 30.224 16.272 32.912 16.272C40.6347 16.272 47.0347 17.2533 52.112 19.216C55.44 20.5387 57.5307 21.9467 58.384 23.44C58.8533 24.208 59.088 24.976 59.088 25.744C59.088 26.512 58.8533 27.3013 58.384 28.112C57.8293 28.88 57.232 29.328 56.592 29.456C55.952 29.584 55.6533 29.4773 55.696 29.136C55.7813 28.752 56.0373 28.2187 56.464 27.536C56.8907 26.8533 57.104 26.192 57.104 25.552ZM19.472 54.736C19.1733 56.656 19.024 57.9787 19.024 58.704C19.024 61.0933 19.7707 62.48 21.264 62.864C21.4773 62.9493 21.712 62.992 21.968 62.992L23.696 62.288C24.0373 61.9893 24.208 61.9467 24.208 62.16C24.208 62.3733 24.08 62.5653 23.824 62.736C23.1413 63.3333 22.2453 63.632 21.136 63.632C20.9227 63.632 20.7093 63.632 20.496 63.632C16.6987 63.3333 14.8 61.1573 14.8 57.104C14.8 54.8853 15.2907 52.368 16.272 49.552C17.2533 46.736 18.704 43.8773 20.624 40.976C22.544 38.032 26.7253 32.0373 33.168 22.992C33.68 22.3093 34.064 21.968 34.32 21.968C34.6187 21.968 34.832 22.032 34.96 22.16C35.088 22.288 35.152 22.416 35.152 22.544C35.152 22.672 35.1307 22.7787 35.088 22.864C26 36.3893 20.7947 47.0133 19.472 54.736Z" fill="white"/>
<path d="M34.28 65.152C34.28 63.968 36.008 60.704 39.464 55.36C38.184 55.04 37.128 54.56 36.296 53.92C35.336 53.152 34.856 52.352 34.856 51.52C34.856 50.688 35.064 50.08 35.48 49.696C35.928 49.28 36.152 49.2 36.152 49.456C36.152 49.584 36.056 49.776 35.864 50.032C35.672 50.288 35.576 50.56 35.576 50.848C35.576 51.872 35.992 52.72 36.824 53.392C37.656 54.032 38.696 54.448 39.944 54.64C42.44 50.928 44.952 47.44 47.48 44.176C50.008 40.88 51.48 39.232 51.896 39.232C52.088 39.232 52.248 39.344 52.376 39.568C52.536 39.792 52.616 40.016 52.616 40.24C48.584 45.232 44.92 50.112 41.624 54.88C41.944 54.912 42.28 54.928 42.632 54.928C45.48 54.928 48.856 54.288 52.76 53.008C56.696 51.696 59.656 50.368 61.64 49.024C63.656 47.648 65.144 46.272 66.104 44.896C67.064 43.488 67.544 42.192 67.544 41.008C67.544 39.824 67.16 38.768 66.392 37.84C65.656 36.912 64.616 36.288 63.272 35.968C61.96 35.616 60.808 35.44 59.816 35.44C56.36 35.44 52.424 36.144 48.008 37.552C43.624 38.96 40.648 40.32 39.08 41.632C38.536 42.048 38.344 42.4 38.504 42.688C38.664 42.944 38.696 43.088 38.6 43.12C38.504 43.152 38.376 43.104 38.216 42.976C37.544 42.592 37.112 42.112 36.92 41.536C36.728 40.928 36.632 40.496 36.632 40.24C36.632 39.952 36.712 39.728 36.872 39.568C38.056 37.872 40.808 36.304 45.128 34.864C49.48 33.424 53.8 32.496 58.088 32.08C58.824 32.016 59.736 31.984 60.824 31.984C61.944 31.984 63.24 32.192 64.712 32.608C66.216 33.024 67.4 33.728 68.264 34.72C69.352 35.936 69.896 37.424 69.896 39.184C69.896 41.584 68.84 43.984 66.728 46.384C65.512 47.76 64.04 48.96 62.312 49.984C59.624 51.52 56.392 52.864 52.616 54.016C48.872 55.168 45.672 55.744 43.016 55.744C42.344 55.744 41.688 55.712 41.048 55.648C38.2 59.744 36.392 62.8 35.624 64.816C35.432 65.328 35.16 65.584 34.808 65.584C34.456 65.584 34.28 65.44 34.28 65.152Z" fill="white"/>
<defs>
<filter id="filter0_d" x="14" y="13" width="20" height="20" filterUnits="userSpaceOnUse" color-interpolation-filters="sRGB">
<feFlood flood-opacity="0" result="BackgroundImageFix"/>
<feColorMatrix in="SourceAlpha" type="matrix" values="0 0 0 0 0 0 0 0 0 0 0 0 0 0 0 0 0 0 127 0"/>
<feOffset/>
<feColorMatrix type="matrix" values="0 0 0 0 0 0 0 0 0 0 0 0 0 0 0 0 0 0 0.25 0"/>
<feBlend mode="normal" in2="BackgroundImageFix" result="effect1_dropShadow"/>
<feBlend mode="normal" in="SourceGraphic" in2="effect1_dropShadow" result="shape"/>
</filter>
</defs>
</svg>
